<?xml version="1.0" encoding="UTF-8"?>
<svg version="1.1" xmlns="http://www.w3.org/2000/svg" width="990" height="252">
<path d="M0 0 C8.58 0 17.16 0 26 0 C35.35943855 23.65644727 44.71604098 47.31380563 54 71 C56.85811756 66.71282366 58.39666068 62.06307601 60.1875 57.25 C60.56841797 56.27289063 60.94933594 55.29578125 61.34179688 54.2890625 C61.69693359 53.33257812 62.05207031 52.37609375 62.41796875 51.390625 C62.74563232 50.52469727 63.0732959 49.65876953 63.41088867 48.76660156 C64.81536224 42.1708724 62.20334018 36.47917701 59.62109375 30.546875 C59.28956802 29.76483704 58.9580423 28.98279907 58.61647034 28.17706299 C57.56462711 25.69795828 56.50202272 23.22368377 55.4375 20.75 C54.37046718 18.26161888 53.30592986 15.77227866 52.24781799 13.28009033 C51.59111192 11.73410165 50.92913064 10.19034083 50.26133728 8.64910889 C48 3.33663931 48 3.33663931 48 0 C55.59 0 63.18 0 71 0 C73.97 8.58 76.94 17.16 80 26 C81.89213234 23.16180149 82.84875543 20.87702043 83.9453125 17.67578125 C84.29980469 16.64775391 84.65429688 15.61972656 85.01953125 14.56054688 C85.38433594 13.48869141 85.74914062 12.41683594 86.125 11.3125 C86.49753906 10.22904297 86.87007813 9.14558594 87.25390625 8.02929688 C88.17310926 5.35418044 89.08705674 2.67725918 90 0 C97.59 0 105.18 0 113 0 C112.31299049 3.43504755 111.81476771 5.7591046 110.4777832 8.82128906 C110.17109207 9.53263 109.86440094 10.24397095 109.54841614 10.97686768 C109.21919662 11.73215759 108.88997711 12.48744751 108.55078125 13.265625 C107.86012103 14.8940198 107.1707065 16.52294341 106.48242188 18.15234375 C105.40095397 20.70283213 104.31278725 23.24934308 103.20288086 25.78759766 C102.12938397 28.25039618 101.08793212 30.72484023 100.05078125 33.203125 C99.71548904 33.95031799 99.38019684 34.69751099 99.03474426 35.46734619 C96.67196635 41.2221668 97.0656848 45.14957445 99 51 C99.31727051 51.97332275 99.63454102 52.94664551 99.96142578 53.94946289 C100.2861084 54.7821167 100.61079102 55.61477051 100.9453125 56.47265625 C101.29980469 57.39111328 101.65429688 58.30957031 102.01953125 59.25585938 C102.56673828 60.64514648 102.56673828 60.64514648 103.125 62.0625 C103.49753906 63.02349609 103.87007813 63.98449219 104.25390625 64.97460938 C105.16355485 67.31870383 106.07898954 69.66035181 107 72 C107.31525635 71.19933105 107.6305127 70.39866211 107.95532227 69.57373047 C108.40447998 68.43307129 108.8536377 67.29241211 109.31640625 66.1171875 C109.56448532 65.48716827 109.81256439 64.85714905 110.06816101 64.20803833 C111.47744356 60.62933528 112.88724506 57.05083767 114.29785156 53.47265625 C114.90300683 51.93750474 115.50814978 50.40234839 116.11328125 48.8671875 C116.42413666 48.07858337 116.73499207 47.28997925 117.05526733 46.47747803 C119.08092678 41.33695545 121.10207601 36.1946802 123.12046814 31.05130005 C124.49377006 27.55283995 125.86914711 24.05519772 127.24484253 20.55767822 C127.91563524 18.85080945 128.58549437 17.14357349 129.25442505 15.43597412 C130.19327628 13.03970534 131.13533354 10.64472073 132.078125 8.25 C132.35984055 7.52861847 132.64155609 6.80723694 132.93180847 6.06399536 C134.88606984 1.11393016 134.88606984 1.11393016 136 0 C137.85369611 -0.08737645 139.71067541 -0.10698153 141.56640625 -0.09765625 C142.69111328 -0.09443359 143.81582031 -0.09121094 144.97460938 -0.08789062 C146.15861328 -0.07951172 147.34261719 -0.07113281 148.5625 -0.0625 C149.75037109 -0.05798828 150.93824219 -0.05347656 152.16210938 -0.04882812 C155.10812226 -0.03699675 158.05403681 -0.02051287 161 0 C160.40486656 3.412274 159.54236575 6.4000285 158.17749023 9.58056641 C157.80297226 10.45983795 157.42845428 11.3391095 157.04258728 12.24502563 C156.63536942 13.1876828 156.22815155 14.13033997 155.80859375 15.1015625 C155.38506119 16.09264008 154.96152863 17.08371765 154.52516174 18.10482788 C153.16709397 21.28016184 151.80249366 24.45263798 150.4375 27.625 C149.54577242 29.70553569 148.654492 31.7862631 147.76367188 33.8671875 C146.44474829 36.94779967 145.12568536 40.02835018 143.80548096 43.1084137 C141.03749347 49.56775583 138.27864203 56.03080586 135.54296875 62.50390625 C135.22782822 63.24649689 134.91268768 63.98908752 134.58799744 64.75418091 C132.56082572 69.56374181 130.67703926 74.41436682 128.875 79.3125 C126.17023726 86.66386444 123.14010138 93.82262542 120 101 C112.08 101 104.16 101 96 101 C91.05 88.13 86.1 75.26 81 62 C78.63707557 67.31657997 76.34272054 72.52994429 74.23828125 77.93359375 C73.75939453 79.15884766 73.28050781 80.38410156 72.78710938 81.64648438 C72.2954382 82.91010384 71.80390314 84.17377628 71.3125 85.4375 C70.33064865 87.95751124 69.34720004 90.47688785 68.36328125 92.99609375 C67.93313721 94.10138428 67.50299316 95.2066748 67.05981445 96.34545898 C66 99 66 99 65 101 C57.08 101 49.16 101 41 101 C39.77667969 98.05707031 38.55335937 95.11414063 37.29296875 92.08203125 C27.56653429 68.69670107 17.79161829 45.33293326 7.91870117 22.0090332 C7.53458572 21.1012915 7.15047028 20.1935498 6.75471497 19.25830078 C6.0411822 17.5724577 5.3271773 15.88681433 4.6125946 14.20141602 C3.99923809 12.75267055 3.38784602 11.30309083 2.7789917 9.85244751 C2.11801357 8.28063706 1.44616414 6.71340517 0.77197266 5.1472168 C0 3 0 3 0 0 Z " fill="#525252" transform="translate(28,88)"/>
<path d="M0 0 C3.125 0.5 3.125 0.5 5.07714844 2.77661133 C8.06994054 7.62079954 9.420301 13.15403448 11.015625 18.57421875 C11.36510193 19.73500443 11.71457886 20.8957901 12.074646 22.0917511 C12.80872724 24.53704691 13.5379801 26.98379679 14.26269531 29.43188477 C15.37508431 33.18778466 16.50265339 36.93886644 17.6328125 40.68945312 C18.34464098 43.06744181 19.05560853 45.44568841 19.765625 47.82421875 C20.27177338 49.51172493 20.27177338 49.51172493 20.78814697 51.23332214 C21.09556824 52.27482925 21.4029895 53.31633636 21.71972656 54.3894043 C21.99190002 55.30618454 22.26407349 56.22296478 22.54449463 57.16752625 C23.125 59.5 23.125 59.5 23.125 62.5 C23.73779312 62.67713531 24.35058624 62.85427063 24.98194885 63.03677368 C33.60877312 65.57149023 41.9752581 68.6697613 50.37719727 71.86035156 C52.17719664 72.54048588 53.97998966 73.2132693 55.78540039 73.87890625 C58.41413107 74.84837395 61.03372961 75.83951704 63.65234375 76.8359375 C64.86167824 77.27527115 64.86167824 77.27527115 66.09544373 77.72348022 C69.70067519 79.12186627 71.72032854 79.99715523 74.18701172 83.06225586 C75.125 85.5 75.125 85.5 74.60546875 88.16796875 C72.78151508 91.04105673 71.60514425 91.61480677 68.4375 92.8125 C67.37015625 93.22113281 66.3028125 93.62976563 65.203125 94.05078125 C63.8452895 94.53816465 62.48571006 95.02070056 61.125 95.5 C60.26455078 95.80341309 59.40410156 96.10682617 58.51757812 96.41943359 C54.56812207 97.80526709 50.61556988 99.1814479 46.65673828 100.5402832 C40.15547531 102.7725932 33.73491068 105.1256105 27.35546875 107.6875 C25.125 108.5 25.125 108.5 23.125 108.5 C23.01719711 109.09371399 22.90939423 109.68742798 22.79832458 110.2991333 C21.55689788 116.8422852 19.88063404 123.16939962 17.97265625 129.546875 C17.67185654 130.56170959 17.37105682 131.57654419 17.06114197 132.62213135 C16.42882675 134.75054524 15.79423858 136.87828509 15.1574707 139.00537109 C14.18668995 142.25270967 13.22673473 145.50311788 12.26757812 148.75390625 C11.6490868 150.83092263 11.02996785 152.90775223 10.41015625 154.984375 C10.1256813 155.95010437 9.84120636 156.91583374 9.54811096 157.91082764 C8.11709823 162.66108305 6.72660901 167.2350672 4.125 171.5 C1.25 172.6875 1.25 172.6875 -1.875 172.5 C-8.10392262 168.19523369 -8.89886106 161.50848652 -10.66015625 154.5 C-11.18246031 152.56169092 -11.70482442 150.62339578 -12.23063564 148.68603516 C-13.51831536 143.92782267 -14.77390229 139.16205867 -15.98120117 134.3828125 C-16.66180383 131.69511045 -17.36833766 129.01687465 -18.10411072 126.34375 C-18.79373899 123.83367009 -19.44485024 121.31260004 -20.05177307 118.78125 C-21.8707929 112.21474143 -21.8707929 112.21474143 -26.65931702 107.65844727 C-29.70581868 106.37394487 -32.69561852 105.39698227 -35.875 104.5 C-37.6280201 103.83035818 -39.3755399 103.14584641 -41.11328125 102.4375 C-42.80369184 101.7890651 -44.495111 101.14325365 -46.1875 100.5 C-47.08251221 100.1582373 -47.97752441 99.81647461 -48.8996582 99.46435547 C-55.58365819 96.93404801 -62.31600425 94.63975168 -69.13671875 92.5078125 C-71.875 91.5 -71.875 91.5 -73.875 89.5 C-74.375 86.125 -74.375 86.125 -73.875 82.5 C-69.59395364 79.06757927 -65.04936283 77.21969273 -59.94921875 75.40625 C-59.20219193 75.1328479 -58.4551651 74.8594458 -57.6855011 74.57775879 C-55.3138183 73.71100362 -52.93847955 72.85489837 -50.5625 72 C-48.19788369 71.14344092 -45.83416403 70.28453801 -43.47163391 69.42224121 C-42.00812657 68.88866663 -40.5433603 68.35852621 -39.07707214 67.8326416 C-37.70537629 67.33477666 -36.33953245 66.82047393 -34.98022461 66.28971863 C-32.875 65.5 -32.875 65.5 -30.50512695 64.82221985 C-26.8145577 63.59021071 -24.52926958 62.60404946 -22.50254822 59.18405151 C-21.34191498 56.14752089 -20.44495582 53.11993937 -19.6015625 49.98046875 C-19.26627533 48.84853592 -18.93098816 47.71660309 -18.58554077 46.55036926 C-17.52309086 42.93827902 -16.51053959 39.31441759 -15.5 35.6875 C-14.45729316 32.07511079 -13.40466951 28.46573349 -12.35018921 24.85676575 C-11.69871743 22.61340576 -11.05605961 20.36746185 -10.42349243 18.11869812 C-5.56593287 0.96798833 -5.56593287 0.96798833 0 0 Z " fill="#FDAC33" transform="translate(890.875,30.5)"/>
<path d="M0 0 C0.93392578 0.79857422 0.93392578 0.79857422 1.88671875 1.61328125 C2.51964844 2.11472656 3.15257812 2.61617187 3.8046875 3.1328125 C10.30399515 8.82836782 13.56993081 17.18457632 14.88671875 25.61328125 C15.07087139 28.88666011 15.11898854 32.15965935 15.16796875 35.4375 C15.18637817 36.38011185 15.2047876 37.32272369 15.22375488 38.29389954 C15.30227474 42.3176464 15.37036608 46.3415521 15.43896484 50.36547852 C15.49060284 53.30623868 15.54786181 56.2468517 15.60546875 59.1875 C15.61904419 60.10206467 15.63261963 61.01662933 15.64660645 61.95890808 C15.66332397 62.80351089 15.6800415 63.64811371 15.69726562 64.51831055 C15.7097937 65.26267868 15.72232178 66.00704681 15.73522949 66.77397156 C15.77975143 68.7095851 15.77975143 68.7095851 16.88671875 70.61328125 C18.90341702 71.74678659 18.90341702 71.74678659 20.88671875 72.61328125 C20.91559387 76.25909812 20.9334746 79.90488588 20.94921875 83.55078125 C20.95759766 84.59169922 20.96597656 85.63261719 20.97460938 86.70507812 C20.97783203 87.69443359 20.98105469 88.68378906 20.984375 89.703125 C20.98961182 90.61956787 20.99484863 91.53601074 21.00024414 92.48022461 C20.88671875 94.61328125 20.88671875 94.61328125 19.88671875 95.61328125 C11.97140776 96.77319114 5.0170289 97.57456467 -2.11328125 93.61328125 C-5.89681588 90.02888002 -6.95312294 86.54395405 -8.11328125 81.61328125 C-9.06203125 82.47953125 -10.01078125 83.34578125 -10.98828125 84.23828125 C-22.8521781 94.33572263 -34.77264456 97.80270935 -50.11572266 96.82910156 C-58.63661357 95.9084871 -66.56313841 91.88216467 -72.0234375 85.31640625 C-78.56060416 76.45700175 -80.12783828 68.53928006 -79.11328125 57.61328125 C-77.39679688 49.87823777 -73.38700109 44.36702669 -67.11328125 39.61328125 C-56.74008276 33.2623434 -47.25716669 31.24661327 -35.23828125 31.36328125 C-34.27390137 31.36714844 -33.30952148 31.37101562 -32.31591797 31.375 C-25.76559081 31.4546796 -19.46870459 31.9103927 -13.11328125 33.61328125 C-12.67229772 28.21123307 -12.66165152 23.74187361 -15.73046875 19.1171875 C-20.11153447 14.35246913 -26.16983277 12.94596756 -32.43359375 12.59375 C-42.06136231 12.66392324 -49.41238519 15.35686517 -57.77001953 19.86889648 C-62.85351876 22.61328125 -62.85351876 22.61328125 -66.11328125 22.61328125 C-67.45147623 19.99065805 -68.78399635 17.36541526 -70.11328125 14.73828125 C-70.49484375 13.99191406 -70.87640625 13.24554688 -71.26953125 12.4765625 C-71.63046875 11.76113281 -71.99140625 11.04570313 -72.36328125 10.30859375 C-72.6984375 9.64875488 -73.03359375 8.98891602 -73.37890625 8.30908203 C-74.11328125 6.61328125 -74.11328125 6.61328125 -74.11328125 4.61328125 C-52.83396145 -7.66554194 -21.71980981 -16.67253972 0 0 Z M-50.8203125 54.54296875 C-52.79947144 57.71201478 -53.2196499 60.94710847 -53.11328125 64.61328125 C-51.49433525 69.47011924 -48.72209498 73.26203685 -44.11328125 75.61328125 C-35.30777163 77.87003922 -27.63249744 76.08605992 -19.80078125 71.80078125 C-15.21739334 68.30112184 -15.21739334 68.30112184 -12.11328125 63.61328125 C-11.70215988 59.24706819 -11.82143293 54.98452051 -12.11328125 50.61328125 C-24.19454655 46.31316987 -41.31294241 43.79550691 -50.8203125 54.54296875 Z " fill="#535353" transform="translate(657.11328125,94.38671875)"/>
<path d="M0 0 C9.57 0 19.14 0 29 0 C30.30195313 3.568125 31.60390625 7.13625 32.9453125 10.8125 C34.22606899 14.3210249 35.50706637 17.82946177 36.78808594 21.33789062 C37.66887088 23.75055939 38.5494108 26.16331763 39.4296875 28.57617188 C45.45935988 45.11265065 45.45935988 45.11265065 51.5546875 61.625 C52.01085449 62.85476562 52.46702148 64.08453125 52.93701172 65.3515625 C53.75147146 67.88241763 53.75147146 67.88241763 55 69 C57.05052478 62.780396 59.0943876 56.55862929 61.1340332 50.33544922 C61.8259276 48.22689503 62.51924254 46.11880633 63.21411133 44.01123047 C66.86318173 32.940188 70.45846733 21.88330699 73.44413757 10.61184692 C74.42698384 6.91938061 75.57184376 3.57039061 77 0 C85.58 0 94.16 0 103 0 C102.29725324 4.21648054 101.61083456 7.51280745 100.2421875 11.453125 C99.87198486 12.5244165 99.50178223 13.59570801 99.12036133 14.69946289 C98.70939209 15.87114014 98.29842285 17.04281738 97.875 18.25 C97.43295642 19.5213229 96.99115097 20.79272861 96.54956055 22.06420898 C93.91584391 29.62623745 91.23020721 37.1694781 88.52734375 44.70703125 C88.22700729 45.54476578 87.92667084 46.38250031 87.61723328 47.24562073 C86.36652816 50.73305299 85.11554392 54.2203787 83.86105347 57.70645142 C80.11038964 68.13318465 76.43892258 78.58050419 72.9140625 89.0859375 C72.5791832 90.08139084 72.24430389 91.07684418 71.89927673 92.10246277 C70.28527589 96.90443354 68.68282458 101.70976205 67.09887695 106.52172852 C62.15996503 121.37468812 57.38371384 134.77466969 42.6875 142.4375 C37.51936541 144.85363001 32.7960046 145.18229724 27.125 145.1875 C26.43019531 145.19974609 25.73539062 145.21199219 25.01953125 145.22460938 C20.33791734 145.23783427 17.62720828 144.54240276 13 143 C13 135.08 13 127.16 13 119 C15.31 119.33 17.62 119.66 20 120 C24.52019037 120.49907465 27.79008942 120.74244513 31.75 118.3125 C35.44265734 113.73568527 38.01606377 107.73757812 39 102 C38.49808688 98.49050228 37.25147799 95.30627645 36 92 C35.75781738 91.3587619 35.51563477 90.7175238 35.26611328 90.05685425 C33.0726448 84.28402446 30.78831554 78.54823114 28.5 72.8125 C27.75635754 70.93897643 27.012954 69.06535801 26.26977539 67.19165039 C22.10482478 56.70754425 17.89207168 46.24313407 13.65234375 35.7890625 C13.2149588 34.71007187 12.77757385 33.63108124 12.32693481 32.51939392 C10.18862312 27.24661856 8.0454555 21.97589511 5.89453125 16.70825195 C5.11582329 14.79380782 4.33717434 12.87933969 3.55859375 10.96484375 C3.19692612 10.0835379 2.83525848 9.20223206 2.46263123 8.29421997 C2.13650345 7.49064056 1.81037567 6.68706116 1.47436523 5.85913086 C1.18810776 5.15831894 0.90185028 4.45750702 0.60691833 3.73545837 C0 2 0 2 0 0 Z " fill="#535353" transform="translate(426,88)"/>
<path d="M0 0 C27.06 0 54.12 0 82 0 C83.73726542 15.63538874 83.73726542 15.63538874 80.3125 20.296875 C78.79228706 21.95825057 77.24007828 23.59068201 75.6640625 25.19921875 C72.70266073 28.31259861 70.1099141 31.59323548 67.5 35 C63.5678248 40.0882552 59.45843611 44.91415803 55.10546875 49.65234375 C52.3213121 52.7567559 49.75654049 56.01136747 47.17578125 59.28515625 C43.36840795 64.0358285 39.40274427 68.65393386 35.45043945 73.28417969 C33.28626353 75.84432585 31.14609881 78.42468143 29 81 C46.82 81.33 64.64 81.66 83 82 C83 88.27 83 94.54 83 101 C54.95 101 26.9 101 -2 101 C-2 83 -2 83 1.4375 78.0625 C2.94846439 76.69733042 4.46971554 75.34347716 6 74 C7.46944768 72.27673863 8.9058132 70.52486295 10.3125 68.75 C14.11753083 64.0608398 17.99680664 59.44301974 21.90893555 54.84350586 C24.85900005 51.36813688 27.75638847 47.85578497 30.625 44.3125 C34.19023004 39.92452456 37.91188644 35.72186976 41.76171875 31.58203125 C43.66416987 29.38740614 45.4062679 27.1653649 47.13989258 24.83862305 C47.67657059 24.11942184 48.2132486 23.40022064 48.76618958 22.65922546 C49.17334702 22.11168106 49.58050446 21.56413666 50 21 C49.08251732 20.9845388 49.08251732 20.9845388 48.14649963 20.96876526 C41.80417684 20.86093255 35.46200286 20.74631658 29.11987305 20.62768555 C26.75011292 20.5842619 24.38032 20.54259251 22.01049805 20.50268555 C18.61236667 20.44516232 15.21440157 20.38141697 11.81640625 20.31640625 C10.2164254 20.29133751 10.2164254 20.29133751 8.5841217 20.26576233 C7.60318039 20.24581711 6.62223907 20.22587189 5.61157227 20.20532227 C4.30918358 20.18200584 4.30918358 20.18200584 2.98048401 20.15821838 C1 20 1 20 0 19 C0 12.73 0 6.46 0 0 Z " fill="#535353" transform="translate(244,88)"/>
<path d="M0 0 C27.06 0 54.12 0 82 0 C82 20.03083518 82 20.03083518 78.07617188 24.16796875 C77.53541016 24.64878906 76.99464844 25.12960938 76.4375 25.625 C75.92380859 26.14449219 75.41011719 26.66398437 74.88085938 27.19921875 C73.82760192 28.26425175 72.75904895 29.31436026 71.67626953 30.34936523 C66.08244678 35.85764307 61.21058534 42.11491325 56.25 48.1875 C51.91656233 53.47383111 47.5571456 58.73362297 43.125 63.9375 C39.14517488 68.61107605 35.26723901 73.35573839 31.4609375 78.171875 C30 80 30 80 29 81 C46.82 81.33 64.64 81.66 83 82 C83 88.27 83 94.54 83 101 C54.95 101 26.9 101 -2 101 C-2 82.08384567 -2 82.08384567 2.52001953 77.02075195 C3.15278809 76.39515381 3.78555664 75.76955566 4.4375 75.125 C5.7358039 73.70454298 7.03398116 72.2839702 8.33203125 70.86328125 C8.9657666 70.20021973 9.59950195 69.5371582 10.25244141 68.85400391 C12.51941844 66.44894333 14.57355917 63.90239665 16.625 61.3125 C20.52175256 56.53934027 24.53020067 51.86846773 28.55029297 47.19946289 C35.91044256 38.63614407 42.95169016 29.82006314 50 21 C49.08251732 20.9845388 49.08251732 20.9845388 48.14649963 20.96876526 C41.80417684 20.86093255 35.46200286 20.74631658 29.11987305 20.62768555 C26.75011292 20.5842619 24.38032 20.54259251 22.01049805 20.50268555 C18.61236667 20.44516232 15.21440157 20.38141697 11.81640625 20.31640625 C10.2164254 20.29133751 10.2164254 20.29133751 8.5841217 20.26576233 C7.60318039 20.24581711 6.62223907 20.22587189 5.61157227 20.20532227 C4.30918358 20.18200584 4.30918358 20.18200584 2.98048401 20.15821838 C1 20 1 20 0 19 C0 12.73 0 6.46 0 0 Z " fill="#535353" transform="translate(338,88)"/>
<path d="M0 0 C9.24 0 18.48 0 28 0 C28 33.33 28 66.66 28 101 C18.76 101 9.52 101 0 101 C0 67.67 0 34.34 0 0 Z " fill="#535353" transform="translate(694,88)"/>
<path d="M0 0 C9.24 0 18.48 0 28 0 C28 33.33 28 66.66 28 101 C18.76 101 9.52 101 0 101 C0 67.67 0 34.34 0 0 Z " fill="#535353" transform="translate(199,88)"/>
<path d="M0 0 C2.23409554 2.23409554 2.34971454 2.95317214 2.8671875 5.95703125 C4.40335819 15.1804191 4.40335819 15.1804191 9.890625 22.23046875 C12.9129709 23.41677602 15.84738286 24.24552752 19 25 C22 27 22 27 23 29.8125 C23 33 23 33 21.0625 35.6875 C16.74996898 38.94390097 12.45733562 41 7 41 C6.81824219 41.99 6.63648438 42.98 6.44921875 44 C5.1469339 50.90272112 3.7803368 57.51254747 1 64 C-2.3125 64.6875 -2.3125 64.6875 -6 65 C-8.69499249 63.00347302 -9.50414377 61.07518653 -10.28125 57.875 C-10.48363281 57.08609375 -10.68601562 56.2971875 -10.89453125 55.484375 C-11.29817708 53.828125 -11.70182292 52.171875 -12.10546875 50.515625 C-12.30785156 49.72671875 -12.51023437 48.9378125 -12.71875 48.125 C-12.89341797 47.40570313 -13.06808594 46.68640625 -13.24804688 45.9453125 C-14.49107754 42.72957602 -16.27417698 41.3247103 -19.375 39.9375 C-20.24125 39.628125 -21.1075 39.31875 -22 39 C-25.33989046 37.80718198 -27.82605069 36.88207612 -30 34 C-30.1875 30.5625 -30.1875 30.5625 -29 27 C-25.67311359 24.42994083 -21.92303295 23.22125134 -17.87109375 22.25 C-14.80095524 21.26452607 -14.80095524 21.26452607 -13.609375 18.42578125 C-13.32578125 17.39839844 -13.0421875 16.37101562 -12.75 15.3125 C-12.43546875 14.23742187 -12.1209375 13.16234375 -11.796875 12.0546875 C-11.33707474 10.29211985 -10.88475361 8.52748979 -10.453125 6.7578125 C-9.75302543 3.94534354 -9.15519109 2.17124534 -7.1875 0 C-4.34341909 -1.30015127 -2.92505419 -1.00067643 0 0 Z " fill="#FCCC4E" transform="translate(836,143)"/>
<path d="M0 0 C2.625 0.4375 2.625 0.4375 4.75 2.4375 C7.49379119 6.8275659 9.625 11.20268816 9.625 16.4375 C10.20507812 16.61925781 10.78515625 16.80101563 11.3828125 16.98828125 C22.87317518 20.68567518 22.87317518 20.68567518 26.625 24.4375 C27.0625 26.8125 27.0625 26.8125 26.625 29.4375 C24.41910546 31.86398399 22.43751025 33.20226409 19.27734375 34.1171875 C14.73562183 35.44613781 12.30703051 36.33204221 9.75 40.4765625 C8.73202053 42.7721062 7.77141844 45.0942324 6.87890625 47.44140625 C4.93172173 52.0940247 4.93172173 52.0940247 2.625 53.4375 C-0.8828125 53.55078125 -0.8828125 53.55078125 -4.375 52.4375 C-6.0546875 49.41796875 -6.0546875 49.41796875 -7.25 45.625 C-9.01766366 40.60805884 -9.01766366 40.60805884 -12.5390625 36.7265625 C-14.80220648 35.78043208 -17.00287683 35.0559464 -19.375 34.4375 C-22.875 33.125 -22.875 33.125 -25.375 31.4375 C-26.5625 28 -26.5625 28 -26.375 24.4375 C-22.7303614 20.03879824 -16.69127597 18.20645554 -11.375 16.4375 C-10.715 16.4375 -10.055 16.4375 -9.375 16.4375 C-9.2925 15.798125 -9.21 15.15875 -9.125 14.5 C-5.83731721 1.07529528 -5.83731721 1.07529528 0 0 Z " fill="#FCCC4F" transform="translate(809.375,32.5625)"/>
<path d="M0 0 C1.12591553 0.00523682 2.25183105 0.01047363 3.41186523 0.01586914 C4.50571533 0.0183667 5.59956543 0.02086426 6.7265625 0.0234375 C8.82729126 0.03709351 8.82729126 0.03709351 10.97045898 0.05102539 C17.62202148 0.08196289 17.62202148 0.08196289 24.40795898 0.11352539 C24.40795898 9.35352539 24.40795898 18.59352539 24.40795898 28.11352539 C19.97358398 28.13415039 15.53920898 28.15477539 10.97045898 28.17602539 C9.56997314 28.18512939 8.1694873 28.1942334 6.7265625 28.20361328 C5.6327124 28.20611084 4.5388623 28.2086084 3.41186523 28.21118164 C2.28594971 28.21641846 1.16003418 28.22165527 0 28.22705078 C-2.59204102 28.11352539 -2.59204102 28.11352539 -3.59204102 27.11352539 C-3.69175887 25.19894257 -3.7228469 23.28070222 -3.72485352 21.36352539 C-3.72614258 20.19821289 -3.72743164 19.03290039 -3.72875977 17.83227539 C-3.72489258 16.60508789 -3.72102539 15.37790039 -3.71704102 14.11352539 C-3.7209082 12.88633789 -3.72477539 11.65915039 -3.72875977 10.39477539 C-3.7274707 9.22946289 -3.72618164 8.06415039 -3.72485352 6.86352539 C-3.72372559 5.78586914 -3.72259766 4.70821289 -3.72143555 3.59790039 C-3.54372448 0.18584785 -3.42379494 0.14995429 0 0 Z " fill="#535353" transform="translate(697.592041015625,47.886474609375)"/>
<path d="M0 0 C1.12591553 0.00523682 2.25183105 0.01047363 3.41186523 0.01586914 C4.50571533 0.0183667 5.59956543 0.02086426 6.7265625 0.0234375 C8.82729126 0.03709351 8.82729126 0.03709351 10.97045898 0.05102539 C17.62202148 0.08196289 17.62202148 0.08196289 24.40795898 0.11352539 C24.40795898 9.35352539 24.40795898 18.59352539 24.40795898 28.11352539 C19.97358398 28.13415039 15.53920898 28.15477539 10.97045898 28.17602539 C9.56997314 28.18512939 8.1694873 28.1942334 6.7265625 28.20361328 C5.6327124 28.20611084 4.5388623 28.2086084 3.41186523 28.21118164 C2.28594971 28.21641846 1.16003418 28.22165527 0 28.22705078 C-2.59204102 28.11352539 -2.59204102 28.11352539 -3.59204102 27.11352539 C-3.69175887 25.19894257 -3.7228469 23.28070222 -3.72485352 21.36352539 C-3.72614258 20.19821289 -3.72743164 19.03290039 -3.72875977 17.83227539 C-3.72489258 16.60508789 -3.72102539 15.37790039 -3.71704102 14.11352539 C-3.7209082 12.88633789 -3.72477539 11.65915039 -3.72875977 10.39477539 C-3.7274707 9.22946289 -3.72618164 8.06415039 -3.72485352 6.86352539 C-3.72372559 5.78586914 -3.72259766 4.70821289 -3.72143555 3.59790039 C-3.54372448 0.18584785 -3.42379494 0.14995429 0 0 Z " fill="#535353" transform="translate(202.592041015625,47.886474609375)"/>
<path d="M0 0 C7.59 0 15.18 0 23 0 C23 9.57 23 19.14 23 29 C15.41 29 7.82 29 0 29 C0 19.43 0 9.86 0 0 Z " fill="#525252" transform="translate(541,160)"/>
<path d="M0 0 C0.66 1.32 1.32 2.64 2 4 C1.21625 4.37125 0.4325 4.7425 -0.375 5.125 C-3.64942722 7.46387658 -3.82557807 9.24184983 -5 13 C-8.2 16 -8.2 16 -11 16 C-11.268125 16.7425 -11.53625 17.485 -11.8125 18.25 C-12.9607472 20.90909879 -14.03501375 22.87781485 -16 25 C-16.99 25 -17.98 25 -19 25 C-19 30.28 -19 35.56 -19 41 C7.73 41 34.46 41 62 41 C62.33 41.99 62.66 42.98 63 44 C34.95 44 6.9 44 -22 44 C-22 26 -22 26 -18.5625 21.0625 C-17.0494303 19.69966418 -15.52810937 18.34595064 -14 17 C-12.40552465 15.13097923 -10.84345367 13.23389823 -9.3125 11.3125 C-8.56742188 10.3946875 -7.82234375 9.476875 -7.0546875 8.53125 C-6.03761719 7.27828125 -6.03761719 7.27828125 -5 6 C-3.34081793 3.99354727 -1.67208874 1.99571882 0 0 Z " fill="#4A4A4A" transform="translate(264,145)"/>
<path d="M0 0 C0.33 0 0.66 0 1 0 C1 1.98 1 3.96 1 6 C-27.05 6 -55.1 6 -84 6 C-84 5.34 -84 4.68 -84 4 C-56.94 4 -29.88 4 -2 4 C-1.34 2.68 -0.68 1.36 0 0 Z " fill="#494949" transform="translate(420,183)"/>
<path d="M0 0 C1.65 0 3.3 0 5 0 C4.01 0.33 3.02 0.66 2 1 C2 8.26 2 15.52 2 23 C9.59 23 17.18 23 25 23 C24.67 23.66 24.34 24.32 24 25 C20.37 25 16.74 25 13 25 C13 25.33 13 25.66 13 26 C10.85423363 26.02685938 8.70837355 26.04633088 6.5625 26.0625 C5.36753906 26.07410156 4.17257812 26.08570312 2.94140625 26.09765625 C0 26 0 26 -1 25 C-1.09872903 23.65523613 -1.13079159 22.30541294 -1.1328125 20.95703125 C-1.13410156 20.13009766 -1.13539063 19.30316406 -1.13671875 18.45117188 C-1.13285156 17.58041016 -1.12898437 16.70964844 -1.125 15.8125 C-1.12886719 14.96107422 -1.13273438 14.10964844 -1.13671875 13.23242188 C-1.12972067 8.70816396 -0.91805976 4.45186122 0 0 Z " fill="#494949" transform="translate(695,50)"/>
<path d="M0 0 C17.82 0 35.64 0 54 0 C53.67 0.99 53.34 1.98 53 3 C51.83082031 2.91621094 50.66164063 2.83242187 49.45703125 2.74609375 C47.90887717 2.64288348 46.36069874 2.5400381 44.8125 2.4375 C44.04357422 2.38142578 43.27464844 2.32535156 42.48242188 2.26757812 C41.35610352 2.19506836 41.35610352 2.19506836 40.20703125 2.12109375 C39.5210083 2.0739624 38.83498535 2.02683105 38.12817383 1.97827148 C35.94372927 1.93325259 35.94372927 1.93325259 33.62573242 2.48413086 C30.62428379 3.07381575 27.83964607 3.12959797 24.78125 3.1328125 C23.60175781 3.13410156 22.42226563 3.13539063 21.20703125 3.13671875 C19.98371094 3.13285156 18.76039063 3.12898437 17.5 3.125 C15.66501953 3.13080078 15.66501953 3.13080078 13.79296875 3.13671875 C12.61347656 3.13542969 11.43398438 3.13414062 10.21875 3.1328125 C9.14560547 3.13168457 8.07246094 3.13055664 6.96679688 3.12939453 C4.19977419 3.008713 1.69260327 2.62707019 -1 2 C-0.67 1.34 -0.34 0.68 0 0 Z " fill="#494949" transform="translate(273,170)"/>
<path d="M0 0 C27.06 0 54.12 0 82 0 C82 1.65 82 3.3 82 5 C81.34 5 80.68 5 80 5 C79.505 3.515 79.505 3.515 79 2 C69.12541735 1.93058631 59.25089244 1.87723279 49.3761158 1.84456348 C44.79118375 1.82888634 40.20641822 1.80761094 35.62158203 1.77368164 C31.19956697 1.74116089 26.77771239 1.72316243 22.35558701 1.71536827 C20.6658157 1.70981161 18.9760535 1.69896122 17.28635025 1.68280983 C14.92524262 1.66113186 12.5648039 1.65802895 10.20361328 1.65942383 C9.50014771 1.648638 8.79668213 1.63785217 8.07189941 1.6267395 C5.92357862 1.60541407 5.92357862 1.60541407 3 2 C2.01 3.485 2.01 3.485 1 5 C0.67 3.35 0.34 1.7 0 0 Z " fill="#4C4C4C" transform="translate(338,88)"/>
<path d="M0 0 C14.52 0 29.04 0 44 0 C43.67 0.66 43.34 1.32 43 2 C34.30893365 4.24092432 24.26333555 2.88741208 15.375 2.5625 C13.78257227 2.50915967 12.19012427 2.45642055 10.59765625 2.40429688 C6.73150246 2.27645936 2.86571362 2.1404961 -1 2 C-0.67 1.34 -0.34 0.68 0 0 Z " fill="#4B4B4B" transform="translate(342,105)"/>
<path d="M0 0 C2.95529457 0.36040178 3.75137927 1.02476855 5.5625 3.3125 C5.2325 3.9725 4.9025 4.6325 4.5625 5.3125 C3.964375 5.126875 3.36625 4.94125 2.75 4.75 C0.39841238 4.09156313 0.39841238 4.09156313 -2.4375 5.3125 C-3.0975 4.9825 -3.7575 4.6525 -4.4375 4.3125 C-4.4375 5.9625 -4.4375 7.6125 -4.4375 9.3125 C-2.7875 9.3125 -1.1375 9.3125 0.5625 9.3125 C0.5625 9.9725 0.5625 10.6325 0.5625 11.3125 C-2.0775 11.6425 -4.7175 11.9725 -7.4375 12.3125 C-8.0975 14.2925 -8.7575 16.2725 -9.4375 18.3125 C-10.7575 17.9825 -12.0775 17.6525 -13.4375 17.3125 C-12.1175 16.9825 -10.7975 16.6525 -9.4375 16.3125 C-9.355 15.673125 -9.2725 15.03375 -9.1875 14.375 C-5.85079011 0.7501013 -5.85079011 0.7501013 0 0 Z " fill="#F6C95D" transform="translate(809.4375,32.6875)"/>
<path d="M0 0 C0.625 1.75 0.625 1.75 1 4 C0.34 5.32 -0.32 6.64 -1 8 C-8.92 8 -16.84 8 -25 8 C-22.08477128 5.08477128 -18.95137298 5.1354053 -15 5 C-10.98478164 5.20616036 -6.99667997 5.56702634 -3 6 C-2.87625 5.38125 -2.7525 4.7625 -2.625 4.125 C-2 2 -2 2 0 0 Z " fill="#484848" transform="translate(149,181)"/>
<path d="M0 0 C1.21386936 3.64160808 0.6674695 4.33165469 -0.9375 7.6875 C-1.31777344 8.49574219 -1.69804688 9.30398437 -2.08984375 10.13671875 C-2.39019531 10.75160156 -2.69054687 11.36648437 -3 12 C-1.01432292 12.1953125 0.97135417 12.390625 2.95703125 12.5859375 C5 13 5 13 8 15 C4.31684509 16.2277183 3.37044582 15.6026666 -0.125 14.125 C-1.01445313 13.75632812 -1.90390625 13.38765625 -2.8203125 13.0078125 C-5 12 -5 12 -6 11 C-6.4375 7.6875 -6.4375 7.6875 -6 4 C-3 1.5625 -3 1.5625 0 0 Z " fill="#F6AC42" transform="translate(823,109)"/>
<path d="M0 0 C0.33 0.66 0.66 1.32 1 2 C3.41137915 2.37283169 5.6982017 2.60642987 8.125 2.75 C9.42695312 2.84796875 10.72890625 2.9459375 12.0703125 3.046875 C16.10887902 2.99870124 19.18941162 2.2857242 23 1 C23.99 0.67 24.98 0.34 26 0 C25.67 1.65 25.34 3.3 25 5 C17.08 5 9.16 5 1 5 C0.67 3.35 0.34 1.7 0 0 Z " fill="#494949" transform="translate(68,184)"/>
<path d="M0 0 C0.66 0.33 1.32 0.66 2 1 C-1.6474259 8.03432137 -1.6474259 8.03432137 -6 10 C-7.04644066 11.63790712 -8.0398183 13.31008021 -9 15 C-11.99836342 19.02411932 -14.10084092 21.60024026 -19 23 C-15.05670342 17.46392088 -10.75174857 12.39356555 -6.1484375 7.39453125 C-3.99959754 4.99955144 -1.98656956 2.53040422 0 0 Z " fill="#484848" transform="translate(380,119)"/>
<path d="M0 0 C0.33 0 0.66 0 1 0 C0.98839844 0.61488281 0.97679687 1.22976562 0.96484375 1.86328125 C0.95582031 2.67152344 0.94679688 3.47976562 0.9375 4.3125 C0.92589844 5.11300781 0.91429687 5.91351563 0.90234375 6.73828125 C0.90342145 9.16861334 0.90342145 9.16861334 2 12 C1.34 12 0.68 12 0 12 C-0.33 13.32 -0.66 14.64 -1 16 C-1.66 16 -2.32 16 -3 16 C-3.33 16.99 -3.66 17.98 -4 19 C-6.0625 19.6875 -6.0625 19.6875 -8 20 C-8 19.34 -8 18.68 -8 18 C-7.01 17.34 -6.02 16.68 -5 16 C-3.98034964 13.28284721 -3.10731685 10.65565834 -2.3125 7.875 C-2.08755859 7.12089844 -1.86261719 6.36679688 -1.63085938 5.58984375 C-1.07745009 3.72944657 -0.53743072 1.86507579 0 0 Z " fill="#F3AB44" transform="translate(872,76)"/>
<path d="M0 0 C1.2077558 3.62326739 0.54311128 4.64146369 -1 8 C-4.3125 8.6875 -4.3125 8.6875 -8 9 C-9.9375 7.5625 -9.9375 7.5625 -11 6 C-10.67 5.01 -10.34 4.02 -10 3 C-8.35 3 -6.7 3 -5 3 C-5 3.66 -5 4.32 -5 5 C-3.68 5 -2.36 5 -1 5 C-0.67 3.35 -0.34 1.7 0 0 Z " fill="#F5CA5D" transform="translate(838,199)"/>
<path d="M0 0 C0.33 0.99 0.66 1.98 1 3 C0.01 3.33 -0.98 3.66 -2 4 C-1.67 4.99 -1.34 5.98 -1 7 C-1.99 7.66 -2.98 8.32 -4 9 C-4.36442233 10.66014616 -4.69972883 12.32706064 -5 14 C-5.99 14.495 -5.99 14.495 -7 15 C-7.99 15.66 -8.98 16.32 -10 17 C-10.55744174 13.24423625 -10.04284135 12.06097242 -7.8125 8.88671875 C-6.88735052 7.80958042 -5.94936971 6.74335307 -5 5.6875 C-4.28457031 4.86282227 -4.28457031 4.86282227 -3.5546875 4.02148438 C-2.38071346 2.67141423 -1.19178502 1.33437359 0 0 Z " fill="#4C4C4C" transform="translate(346,160)"/>
<path d="M0 0 C6.54929577 1.45539906 6.54929577 1.45539906 8.5 3.8125 C9.12782589 6.55923825 8.84529214 8.32324155 8 11 C7.34 11.66 6.68 12.32 6 13 C5.01 12.67 4.02 12.34 3 12 C3.99 11.67 4.98 11.34 6 11 C5.67 10.34 5.34 9.68 5 9 C4.34 9 3.68 9 3 9 C3 9.66 3 10.32 3 11 C2.01 11 1.02 11 0 11 C0 10.34 0 9.68 0 9 C3 7 3 7 7 7 C6.67 6.01 6.34 5.02 6 4 C2.99152582 2.77479736 2.99152582 2.77479736 0 2 C0 1.34 0 0.68 0 0 Z " fill="#F5CB63" transform="translate(850,167)"/>
<path d="M0 0 C1.485 0.99 1.485 0.99 3 2 C3.99 2.33 4.98 2.66 6 3 C5.34 6.3 4.68 9.6 4 13 C4.66 13 5.32 13 6 13 C6 15.31 6 17.62 6 20 C3.78545028 16.67817543 2.95381499 13.83578665 1.875 10 C1.34519531 8.14375 1.34519531 8.14375 0.8046875 6.25 C0 3 0 3 0 0 Z " fill="#EDA94B" transform="translate(873,157)"/>
<path d="M0 0 C-0.65419099 5.06998019 -2.8546409 9.41990777 -5 14 C-5.66 14 -6.32 14 -7 14 C-6.835 12.906875 -6.67 11.81375 -6.5 10.6875 C-5.93281816 7.12474127 -5.93281816 7.12474127 -6 4 C-2.57142857 0 -2.57142857 0 0 0 Z " fill="#4B4B4B" transform="translate(138,95)"/>
<path d="M0 0 C1.84187025 2.76280538 2.72248277 4.80707826 3.6875 7.9375 C3.95949219 8.79214844 4.23148438 9.64679688 4.51171875 10.52734375 C5.02075548 13.10510574 4.84888744 14.54449337 4 17 C0.77372479 14.65361803 0.11195987 11.79258434 -0.7265625 8.07421875 C-1.10135958 5.23111519 -0.69130011 2.76520043 0 0 Z " fill="#F3AB49" transform="translate(907,70)"/>
<path d="M0 0 C0.66 0.33 1.32 0.66 2 1 C0.23955691 3.17589571 -1.53227897 5.3403876 -3.3125 7.5 C-3.81201172 8.12003906 -4.31152344 8.74007812 -4.82617188 9.37890625 C-6.15152178 10.97634786 -7.57104134 12.49452691 -9 14 C-9.99 14 -10.98 14 -12 14 C-11.57847656 13.52949219 -11.15695312 13.05898437 -10.72265625 12.57421875 C-9.90087891 11.64029297 -9.90087891 11.64029297 -9.0625 10.6875 C-8.24458984 9.76517578 -8.24458984 9.76517578 -7.41015625 8.82421875 C-5.79918441 6.94758042 -5.79918441 6.94758042 -5 4 C-3.37667033 2.61423077 -1.71275535 1.27358732 0 0 Z " fill="#464646" transform="translate(312,119)"/>
<path d="M0 0 C0.33 0.66 0.66 1.32 1 2 C-1.64 2 -4.28 2 -7 2 C-7.66 4.97 -8.32 7.94 -9 11 C-9.66 11 -10.32 11 -11 11 C-9.69606187 2.81607254 -9.69606187 2.81607254 -7.1875 -0.125 C-4.36646967 -1.25341213 -2.84113623 -0.99823705 0 0 Z " fill="#F0C86D" transform="translate(836,143)"/>
<path d="M0 0 C1.08062462 3.24187386 0.96405231 3.89709861 0.00390625 7.01171875 C-0.33930664 8.14770508 -0.33930664 8.14770508 -0.68945312 9.30664062 C-0.93630859 10.09232422 -1.18316406 10.87800781 -1.4375 11.6875 C-1.68048828 12.48478516 -1.92347656 13.28207031 -2.17382812 14.10351562 C-2.77479738 16.07139534 -3.3863905 18.03602495 -4 20 C-4.33 20 -4.66 20 -5 20 C-5.31270072 14.05868623 -4.67275618 10.44831067 -2 5 C-1.32723284 3.3357865 -0.65793165 1.67013418 0 0 Z " fill="#F1AD47" transform="translate(910,149)"/>
<path d="M0 0 C0.33 0.99 0.66 1.98 1 3 C-0.39176632 3.96423026 -1.7886223 4.92111602 -3.1875 5.875 C-3.96480469 6.40867188 -4.74210937 6.94234375 -5.54296875 7.4921875 C-7.9676609 8.98015439 -10.3333499 10.02428078 -13 11 C-12.67 10.01 -12.34 9.02 -12 8 C-10.865625 7.690625 -9.73125 7.38125 -8.5625 7.0625 C-4.95169833 6.41307023 -4.95169833 6.41307023 -3.75 4 C-3.5025 3.34 -3.255 2.68 -3 2 C-2.01 1.34 -1.02 0.68 0 0 Z " fill="#454545" transform="translate(477,221)"/>
<path d="M0 0 C0.66 0.33 1.32 0.66 2 1 C-0.2722063 3.60614077 -2.13937991 4.58919306 -5.4375 5.5625 C-8.47215622 6.47135643 -11.19879223 7.51325419 -14 9 C-14 8.01 -14 7.02 -14 6 C-13.07316406 5.65066406 -12.14632812 5.30132812 -11.19140625 4.94140625 C-9.99386719 4.48636719 -8.79632812 4.03132812 -7.5625 3.5625 C-6.36753906 3.11003906 -5.17257812 2.65757812 -3.94140625 2.19140625 C-1.15554277 1.2855174 -1.15554277 1.2855174 0 0 Z " fill="#F0C761" transform="translate(822,163)"/>
<path d="M0 0 C0.99 0.33 1.98 0.66 3 1 C2.34 1 1.68 1 1 1 C0.01 5.62 -0.98 10.24 -2 15 C-2.33 15 -2.66 15 -3 15 C-3.33 11.7 -3.66 8.4 -4 5 C-3.34 5 -2.68 5 -2 5 C-1.34 3.35 -0.68 1.7 0 0 Z " fill="#F5CD58" transform="translate(842,183)"/>
<path d="M0 0 C0.33 0 0.66 0 1 0 C1 1.65 1 3.3 1 5 C1.99 4.67 2.98 4.34 4 4 C2.87994369 7.36016893 1.62788203 8.69064913 -1 11 C-1.66 11 -2.32 11 -3 11 C-2.01 7.37 -1.02 3.74 0 0 Z " fill="#F3AB49" transform="translate(884,37)"/>
<path d="M0 0 C0.66 0.33 1.32 0.66 2 1 C2 2.32 2 3.64 2 5 C2.66 5.33 3.32 5.66 4 6 C4.625 8.0625 4.625 8.0625 5 10 C4.01 10.33 3.02 10.66 2 11 C1.47007308 9.54494642 0.9513211 8.08581873 0.4375 6.625 C0.14746094 5.81289062 -0.14257812 5.00078125 -0.44140625 4.1640625 C-1 2 -1 2 0 0 Z " fill="#444444" transform="translate(35,102)"/>
<path d="M0 0 C0.66 1.32 1.32 2.64 2 4 C0.02 4.99 0.02 4.99 -2 6 C-2.33 5.01 -2.66 4.02 -3 3 C-5.01508358 2.26676204 -5.01508358 2.26676204 -7 2 C-2.25 0 -2.25 0 0 0 Z " fill="#F7AC3F" transform="translate(855,98)"/>
<path d="M0 0 C1.65 0.33 3.3 0.66 5 1 C5.33 2.32 5.66 3.64 6 5 C5.01 5.33 4.02 5.66 3 6 C1.68 4.68 0.36 3.36 -1 2 C-0.67 1.34 -0.34 0.68 0 0 Z " fill="#4C4C4C" transform="translate(586,177)"/>
<path d="M0 0 C0.66 1.32 1.32 2.64 2 4 C0.8553125 4.6496875 0.8553125 4.6496875 -0.3125 5.3125 C-2.58093768 6.73686785 -4.2199723 8.03260097 -6 10 C-5.49477778 5.62140745 -2.82172778 3.18348776 0 0 Z " fill="#4B4B4B" transform="translate(264,145)"/>
<path d="M0 0 C1.60379341 -0.05416188 3.20811406 -0.09286638 4.8125 -0.125 C5.70582031 -0.14820313 6.59914063 -0.17140625 7.51953125 -0.1953125 C10 0 10 0 13 2 C12.34 2 11.68 2 11 2 C11 2.66 11 3.32 11 4 C7.1936543 3.32829194 3.64793184 2.27253436 0 1 C0 0.67 0 0.34 0 0 Z " fill="#F2AB45" transform="translate(847,131)"/>
<path d="M0 0 C3.63 0 7.26 0 11 0 C11 0.33 11 0.66 11 1 C9.906875 1.0825 8.81375 1.165 7.6875 1.25 C3.96723336 1.63689209 3.96723336 1.63689209 2.0625 4.0625 C1.711875 4.701875 1.36125 5.34125 1 6 C0.67 4.02 0.34 2.04 0 0 Z " fill="#474747" transform="translate(28,88)"/>
<path d="M0 0 C1.2065625 0.0309375 1.2065625 0.0309375 2.4375 0.0625 C2.1075 1.0525 1.7775 2.0425 1.4375 3.0625 C-1.9375 3.6875 -1.9375 3.6875 -5.5625 4.0625 C-6.2225 3.4025 -6.8825 2.7425 -7.5625 2.0625 C-6.923125 1.918125 -6.28375 1.77375 -5.625 1.625 C-2.92258807 0.88797856 -2.9576555 0.07213794 0 0 Z " fill="#F2CB5F" transform="translate(812.5625,81.9375)"/>
<path d="M0 0 C1.32 0.66 2.64 1.32 4 2 C2.73392393 2.53229326 1.46189588 3.05044544 0.1875 3.5625 C-0.52019531 3.85253906 -1.22789062 4.14257812 -1.95703125 4.44140625 C-4 5 -4 5 -7 4 C-4 2 -4 2 0 2 C0 1.34 0 0.68 0 0 Z " fill="#EBAE4D" transform="translate(944,125)"/>
<path d="M0 0 C2.1519437 3.22791555 2.20086443 4.28400809 2 8 C-1 7 -1 7 -2.1875 4.9375 C-2.5896875 3.9784375 -2.5896875 3.9784375 -3 3 C-2.01 2.01 -1.02 1.02 0 0 Z " fill="#F7AA3F" transform="translate(899,44)"/>
<path d="M0 0 C0.99 0.33 1.98 0.66 3 1 C3 1.99 3 2.98 3 4 C0.69 4.33 -1.62 4.66 -4 5 C-2.68 3.35 -1.36 1.7 0 0 Z " fill="#4D4D4D" transform="translate(588,136)"/>
<path d="M0 0 C0.66 0.33 1.32 0.66 2 1 C0.68 3.31 -0.64 5.62 -2 8 C-2.66 8 -3.32 8 -4 8 C-2.25 2.25 -2.25 2.25 0 0 Z " fill="#4D4D4D" transform="translate(606,147)"/>
<path d="M0 0 C2.29633824 3.44450737 2.54016485 5.93812283 3 10 C1 9 1 9 -0.1875 5.5625 C-1 2 -1 2 0 0 Z " fill="#494949" transform="translate(457,96)"/>
<path d="M0 0 C0.99 0.33 1.98 0.66 3 1 C3 1.66 3 2.32 3 3 C0.125 3.125 0.125 3.125 -3 3 C-3.66 2.34 -4.32 1.68 -5 1 C-3 0 -3 0 0 0 Z " fill="#4B4B4B" transform="translate(666,188)"/>
<path d="M0 0 C2.31 0.66 4.62 1.32 7 2 C4.35261084 3.4606285 3.10551666 4 0 4 C0 2.68 0 1.36 0 0 Z " fill="#F7AA42" transform="translate(948,106)"/>
<path d="M0 0 C-0.33 0.99 -0.66 1.98 -1 3 C-4.0625 4.1875 -4.0625 4.1875 -7 5 C-7 4.01 -7 3.02 -7 2 C-4.35261084 0.5393715 -3.10551666 0 0 0 Z " fill="#4D4D4D" transform="translate(611,106)"/>
<path d="M0 0 C1.32 0.33 2.64 0.66 4 1 C3.01 1.495 3.01 1.495 2 2 C1.67 2.825 1.34 3.65 1 4.5 C0 7 0 7 -2 8 C-1.47731534 5.23723823 -0.89130413 2.6739124 0 0 Z " fill="#484848" transform="translate(503,88)"/>
<path d="M0 0 C2.31 0.66 4.62 1.32 7 2 C6.01 2.33 5.02 2.66 4 3 C4 3.66 4 4.32 4 5 C4.66 5.33 5.32 5.66 6 6 C5.01 6.33 4.02 6.66 3 7 C1.79371992 4.66785852 0.8345262 2.50357861 0 0 Z " fill="#F7CD5B" transform="translate(819,49)"/>
</svg>
